Coordinates
version=1
nRows=11
nColumns=36
inDegrees=yes

Units are S.I. units (second, meters, Newtons, ...)
If the header above contains a line with 'inDegrees', this indicates whether rotational values are in degrees (yes) or radians (no).

endheader
time	pelvis_tilt	pelvis_list	pelvis_rotation	pelvis_tx	pelvis_ty	pelvis_tz	hip_flexion_r	hip_adduction_r	hip_rotation_r	knee_angle_r	knee_angle_r_beta	ankle_angle_r	subtalar_angle_r	mtp_angle_r	hip_flexion_l	hip_adduction_l	hip_rotation_l	knee_angle_l	knee_angle_l_beta	ankle_angle_l	subtalar_angle_l	mtp_angle_l	lumbar_extension	lumbar_bending	lumbar_rotation	arm_flex_r	arm_add_r	arm_rot_r	elbow_flex_r	pro_sup_r	arm_flex_l	arm_add_l	arm_rot_l	elbow_flex_l	pro_sup_l
     14.88333330	     -3.10601020	      3.04876794	    -10.59600867	      0.69789177	      0.93605499	      0.76177851	     27.91305703	     -1.06937848	      5.70423547	     56.02236533	      0.97777473	      6.18119417	    -14.40667285	     -7.49999987	      5.04009727	      5.04505867	     -1.53798880	     13.47216910	      0.23513371	     11.70941718	     -7.38662363	     -7.49999987	      3.11093356	     -2.88726124	      1.10146691	     -5.77554180	     -7.31148571	     -0.38750893	     15.03914333	     81.95702708	      1.17806103	    -10.95872859	      4.13176842	     19.18175326	     78.44346198
     14.90000000	     -2.90791675	      2.49732079	    -10.12658285	      0.69612461	      0.93406040	      0.76268886	     28.42851951	     -0.72858066	      4.83392990	     51.65678406	      0.90158096	      7.51907430	    -13.77933062	     -7.49999987	      3.23181221	      4.73563329	     -1.49763009	     12.83427531	      0.22400036	     12.71130628	     -6.35543512	     -7.49999987	      2.75116255	     -2.36742461	     -0.09248105	     -6.62839851	     -7.43417843	     -1.02112961	     15.60550952	     81.31659201	      1.62394853	    -11.32508070	      3.53641778	     20.15034819	     78.25103683
     14.91666670	     -3.10641190	      2.14356172	     -9.69332535	      0.69464337	      0.93216081	      0.76282395	     29.26100626	     -0.54383004	      4.06646832	     46.80405629	      0.81688489	      8.03585103	    -13.55815773	     -7.49999987	      1.94659963	      4.54162364	     -1.06453358	     12.24045835	      0.21363630	     13.17087023	     -6.43735748	     -7.49999987	      3.02941188	     -2.10264052	     -0.98170019	     -7.58079129	     -7.47270828	     -1.67846414	     16.15774682	     80.30809094	      2.06159589	    -11.69633110	      2.70250632	     20.84487511	     77.75375444
     14.93333330	     -2.94518454	      1.77834514	     -9.37318587	      0.69402544	      0.93226874	      0.76223997	     29.45395049	     -0.43485165	      3.35117458	     41.36972018	      0.72203783	      7.83130504	    -13.15047853	     -7.49999987	      0.24602120	      4.26465810	     -1.33094736	     11.54448170	      0.20148922	     14.17342662	     -5.13434398	     -7.49999987	      2.65265248	     -1.93676036	     -1.59394224	     -8.43625158	     -7.49767952	     -2.82534354	     17.21055031	     79.05723737	      2.44208908	    -12.21291523	      2.00678804	     22.22437076	     77.76256680
     14.95000000	     -3.02849048	      1.54946824	     -9.02879034	      0.69464049	      0.93231938	      0.76174635	     29.70246374	     -0.48605450	      2.60697779	     35.59664408	      0.62127864	      6.98085653	    -12.63426081	     -7.49999987	     -1.14936398	      4.09042100	     -1.35514256	     10.85513763	      0.18945789	     14.89815397	     -4.44315263	     -7.49999987	      2.69936885	     -1.87317658	     -2.10579903	     -9.14413083	     -7.40524471	     -3.60696097	     17.95300702	     77.81660142	      2.91315818	    -12.63657754	      1.66059207	     23.30548741	     77.62975549
     14.96666670	     -3.07404256	      1.47379934	     -8.65111819	      0.69667499	      0.92997337	      0.76187540	     29.76848445	     -0.73127155	      1.79261108	     29.77400169	      0.51965436	      5.92877799	    -11.72905535	     -7.49999987	     -2.61177760	      4.09161072	     -1.20848660	     10.10830841	      0.17642326	     15.45365301	     -4.26268918	     -7.49999987	      2.80045013	     -1.95210592	     -2.59129519	     -9.61474147	     -7.35065225	     -4.17401843	     18.40365854	     77.59331683	      3.39071810	    -12.99193975	      1.42737876	     24.33539275	     78.07923121
     14.98333330	     -3.09726949	      1.44258078	     -8.26684267	      0.69939349	      0.92355568	      0.76229249	     29.68392023	     -0.91619938	      1.02672723	     24.07343594	      0.42016072	      5.04638180	    -10.53395976	     -7.49999987	     -4.00657184	      4.05733210	     -1.59719773	      9.62774827	      0.16803591	     16.37444110	     -3.51903575	     -7.49999987	      2.91678487	     -2.05828322	     -3.07711787	    -10.15682309	     -7.26166418	     -4.91264024	     19.21601988	     76.98019332	      3.67600720	    -13.31199631	      1.20632656	     25.52606609	     78.28092795
     15.00000000	     -3.20108204	      1.45704869	     -7.82827185	      0.70124486	      0.91411155	      0.76193661	     29.69087001	     -1.05320713	      0.31722911	     18.84287400	      0.32887019	      4.78233056	     -8.87723295	     -7.49999987	     -5.19364229	      4.03586009	     -1.87834422	      9.37576442	      0.16363796	     17.26981884	     -3.26710708	     -7.49999987	      3.15149229	     -2.20313414	     -3.48567564	    -10.64485013	     -7.18916664	     -5.37084824	     19.84244197	     76.23149314	      3.96891794	    -13.56991702	      1.13890227	     26.58195333	     78.20782039
     15.01666670	     -3.40916017	      1.46924655	     -7.38312072	      0.70194259	      0.90580619	      0.76116406	     29.82613321	     -1.06339036	     -0.08861594	     14.23660411	      0.24847562	      5.21196012	     -7.10740784	     -7.49999987	     -6.11321777	      3.97161532	     -2.24602061	      9.43708775	      0.16470825	     18.32802282	     -3.09742205	     -7.49999987	      3.52566260	     -2.32872037	     -3.77273454	    -11.21158700	     -7.15905790	     -5.52923950	     20.46339426	     75.48199044	      4.25508722	    -13.78033870	      1.25830412	     27.44258629	     77.92587501
     15.03333330	     -3.67625125	      1.37690433	     -6.97411767	      0.70212743	      0.90211010	      0.76064509	     30.00177514	     -0.88126370	     -0.20807860	     10.33651782	      0.18040627	      6.12353662	     -5.38208356	     -7.49999987	     -6.84304905	      3.79347017	     -2.69438400	      9.81631746	      0.17132706	     19.43470586	     -2.96431044	     -7.49999987	      3.95244110	     -2.27637528	     -4.00079510	    -11.61398264	     -7.19492910	     -5.57231688	     20.84405594	     74.56696481	      4.54109022	    -13.82619548	      1.42187826	     27.91785595	     77.29260680
     15.05000000	     -4.04512943	      1.37266030	     -6.73923631	      0.70213772	      0.90137324	      0.76082991	     30.44917348	     -0.59447036	      0.54773207	      7.76325468	      0.13549435	      7.13533718	     -4.88705581	     -7.49999987	     -7.35350491	      3.72196583	     -2.98419874	     10.45900779	      0.18254412	     20.05087618	     -3.30573846	     -7.49999987	      4.45938806	     -2.35415055	     -4.15189072	    -11.74064567	     -7.16467193	     -5.59304694	     21.00628418	     74.54501581	      4.76866824	    -13.89500351	      1.42213125	     28.11734970	     77.28339604
